<svg
  xmlns="http://www.w3.org/2000/svg"
  viewBox="0 0 1200 900"
  role="img"
  aria-labelledby="title description"
>
  <title id="title">NEXXA structured marketplace illustration</title>
  <desc id="description">
    A deep navy and royal blue structured path illustration representing a connected supplier marketplace.
  </desc>
  <defs>
    <linearGradient id="background" x1="0" y1="0" x2="1" y2="1">
      <stop offset="0" stop-color="#0f172a" />
      <stop offset="1" stop-color="#071225" />
    </linearGradient>
    <radialGradient id="light">
      <stop offset="0" stop-color="#2563eb" stop-opacity=".34" />
      <stop offset="1" stop-color="#2563eb" stop-opacity="0" />
    </radialGradient>
  </defs>
  <rect width="1200" height="900" fill="url(#background)" />
  <circle cx="940" cy="150" r="430" fill="url(#light)" />
  <circle cx="160" cy="780" r="360" fill="url(#light)" />
  <g opacity=".18" stroke="#ffffff" stroke-width="2">
    <path d="M0 180h1200M0 360h1200M0 540h1200M0 720h1200" />
    <path d="M200 0v900M400 0v900M600 0v900M800 0v900M1000 0v900" />
  </g>
  <g transform="translate(330 145)">
    <path
      d="M270 20 506 156v272L270 564 34 428V156Z"
      fill="none"
      stroke="#2563eb"
      stroke-width="34"
      stroke-linejoin="round"
    />
    <path
      d="M145 374V167l250 160V181"
      fill="none"
      stroke="#60a5fa"
      stroke-width="42"
      stroke-linecap="round"
      stroke-linejoin="round"
    />
    <path
      d="M145 170 395 330"
      fill="none"
      stroke="#ffffff"
      stroke-width="18"
      stroke-linecap="round"
      opacity=".18"
    />
    <g fill="#22c55e">
      <circle cx="34" cy="156" r="10" />
      <circle cx="506" cy="156" r="10" />
      <circle cx="270" cy="564" r="10" />
    </g>
  </g>
  <g
    fill="#fff"
    opacity=".86"
    font-family="Arial, sans-serif"
    text-anchor="middle"
  >
    <text x="600" y="790" font-size="42" font-weight="800" letter-spacing="5">
      STRUCTURED SUPPLIER MARKETPLACE
    </text>
    <text x="600" y="842" font-size="26" letter-spacing="12">NEXXA</text>
  </g>
</svg>
